<?xml version="1.0" standalone="no"?>
<!DOCTYPE svg PUBLIC "-//W3C//DTD SVG 20010904//EN"
 "http://www.w3.org/TR/2001/REC-SVG-20010904/DTD/svg10.dtd">
<svg version="1.0" xmlns="http://www.w3.org/2000/svg"
 width="674.000000pt" height="674.000000pt" viewBox="0 0 674.000000 674.000000"
 preserveAspectRatio="xMidYMid meet">
<metadata>
Created by potrace 1.11, written by Peter Selinger 2001-2013
</metadata>
<g transform="translate(0.000000,674.000000) scale(0.100000,-0.100000)"
fill="#000000" stroke="none">
<path d="M3307 6734 c-1 -1 -36 -4 -78 -7 -247 -19 -528 -123 -741 -273 -114
-80 -2068 -2027 -2167 -2159 -214 -286 -316 -587 -314 -930 1 -255 73 -533
190 -732 l25 -43 510 510 c281 280 513 510 517 510 3 0 424 -418 936 -929 864
-862 935 -931 995 -959 98 -45 207 -57 304 -31 100 27 145 63 426 344 l275
275 -1061 1063 -1060 1062 405 403 c223 221 425 415 447 431 131 92 333 154
471 145 146 -11 195 -22 308 -69 119 -51 170 -98 989 -917 l810 -809 403 403
c222 222 403 406 403 410 0 13 -1909 1915 -1979 1970 -142 113 -294 196 -463
252 -78 26 -183 53 -183 47 0 0 -18 4 -40 9 -62 14 -316 33 -328 24z"/>
<path d="M3320 5060 c-146 -21 -193 -55 -504 -368 l-259 -261 1061 -1061 1062
-1062 -402 -402 c-232 -231 -429 -419 -463 -442 -92 -61 -187 -102 -280 -120
-11 -2 -32 -6 -47 -9 -38 -9 -163 -9 -228 -1 -104 14 -231 63 -330 129 -25 16
-413 397 -862 846 l-818 816 -407 -408 -408 -407 955 -956 c525 -525 991 -984
1035 -1019 281 -221 602 -330 960 -326 265 2 455 50 697 173 197 100 225 126
1278 1180 542 542 996 999 1010 1015 173 202 312 496 346 733 16 113 18 147
18 260 0 189 -20 315 -76 484 -24 74 -125 296 -134 296 -1 0 -234 -232 -517
-515 -366 -366 -518 -512 -524 -503 -5 7 -427 430 -938 939 -738 735 -940 930
-977 947 -82 38 -173 53 -248 42z"/>
</g>
</svg>
