<svg xmlns="http://www.w3.org/2000/svg" xmlns:xlink="http://www.w3.org/1999/xlink" viewBox="0 0 325.98 88.65">
  <defs>
    <style>
      .cls-1{fill:url(#gradation_1);}
      .cls-2{fill:url(#gradation_2);}
      .cls-3{fill:#333e48;}
    </style>
    <linearGradient id="gradation_1" x1="47.2" y1="4.21" x2="47.2" y2="64.25" gradientUnits="userSpaceOnUse">
      <stop offset="0" stop-color="#00afec"/>
      <stop offset="0.5" stop-color="#0068b7"/>
      <stop offset="1" stop-color="#14126f"/>
    </linearGradient>
    <linearGradient id="gradation_2" x1="41.52" y1="-3.86" x2="41.52" y2="70.91" gradientUnits="userSpaceOnUse">
      <stop offset="0" stop-color="#bae3f9"/>
      <stop offset="0.5" stop-color="#00a0e9"/>
      <stop offset="1" stop-color="#0075c2"/>
    </linearGradient>
  </defs>
  <g id="layer">
    <path class="cls-1" d="M30.12,82.75a20.14,20.14,0,0,0,28.48,0L82.53,58.82l.07-.15.31-.23.7-.7.77-1a20,20,0,0,0,1.5-22.69L72.34,47.62h0L48.42,23.7a5.81,5.81,0,0,0-.88-.72,5.75,5.75,0,0,0-6.37,0,5.79,5.79,0,0,0-.88.72l-6.64,6.64,28,28-9.93,9.93a10.33,10.33,0,0,1-7.35,3q-.52,0-1-.05a10.31,10.31,0,0,1-6.32-3L16.38,47.62,5.68,58.31Z"/>
    <path class="cls-2" d="M58.6,5.9a20.14,20.14,0,0,0-28.48,0l-25,25-.77,1a20,20,0,0,0-1.5,22.69L16.38,41,40.3,65a5.74,5.74,0,0,0,8.12,0l6.64-6.64-28-28L37,20.41a10.5,10.5,0,0,1,1.59-1.3,10.32,10.32,0,0,1,5.76-1.74h0a10.32,10.32,0,0,1,5.76,1.74,10.5,10.5,0,0,1,1.59,1.3L72.33,41l7-7L83,30.34Z"/>
    <path class="cls-3" d="M155,10.34a5.52,5.52,0,1,0,5.52,5.53A5.6,5.6,0,0,0,155,10.34Z"/>
    <rect class="cls-3" x="151.07" y="33.44" width="7.93" height="44.78"/>
    <path class="cls-3" d="M187.84,55.74V10.25H179.9V55.74A22.69,22.69,0,0,0,202.23,78.4v-8A14.7,14.7,0,0,1,187.84,55.74Z"/>
    <path class="cls-3" d="M222.58,55.74V10.25h-7.93V55.74A22.69,22.69,0,0,0,237,78.4v-8A14.71,14.71,0,0,1,222.58,55.74Z"/>
    <path class="cls-3" d="M258.4,10.34a5.52,5.52,0,1,0,5.53,5.53A5.6,5.6,0,0,0,258.4,10.34Z"/>
    <rect class="cls-3" x="254.44" y="33.44" width="7.93" height="44.78"/>
    <path class="cls-3" d="M303.41,33.07a22.6,22.6,0,0,0-22.57,22.57V78.22h7.93V55.65a14.64,14.64,0,1,1,29.29,0V78.22H326V55.65A22.6,22.6,0,0,0,303.41,33.07Z"/>
    <path class="cls-3" d="M132.19,18.18V10.34A22.51,22.51,0,0,0,110,32.82v45.4h7.84l-.09-36.85h12.93V33.44H117.89v-.58A14.76,14.76,0,0,1,132.19,18.18Z"/>
  </g>
</svg>
