<svg xmlns="http://www.w3.org/2000/svg" viewBox="0 0 127.99 127.91"><defs><style>.cls-1{fill:#fff;}</style></defs><title>アセット 1</title><g id="レイヤー_2" data-name="レイヤー 2"><g id="レイヤー_1-2" data-name="レイヤー 1"><g id="layer"><path class="cls-1" d="M43.46,119.41a29.07,29.07,0,0,0,41.09,0l34.53-34.53.11-.21.44-.34,1-1,1.11-1.41a28.87,28.87,0,0,0,2.16-32.74L104.37,68.72h0L69.86,34.21a8.65,8.65,0,0,0-1.26-1,8.3,8.3,0,0,0-9.19,0,7.69,7.69,0,0,0-1.26,1l-9.58,9.58L88.94,84.15,74.61,98.48A14.92,14.92,0,0,1,64,102.87a14.72,14.72,0,0,1-1.49-.07,14.92,14.92,0,0,1-9.11-4.32L23.64,68.72,8.2,84.15Z"/><path class="cls-1" d="M84.55,8.53a29,29,0,0,0-41-.07l-.06.07h0L7.37,44.62,6.26,46A28.85,28.85,0,0,0,4.09,78.77L23.64,59.22,58.15,93.73a8.29,8.29,0,0,0,11.71,0h0l9.58-9.58L39.08,43.79,53.4,29.46A15.17,15.17,0,0,1,64,25h0a14.87,14.87,0,0,1,8.32,2.51,15.79,15.79,0,0,1,2.29,1.88l29.75,29.81L114.53,49l5.28-5.28Z"/></g></g></g></svg>