<svg xmlns="http://www.w3.org/2000/svg" viewBox="0 0 283.46 77.09">
  <defs>
    <style>
      .cls-1{fill:#fff;}
    </style>
  </defs>
  <g id="layer">
    <path class="cls-1" d="M26.19,72A17.51,17.51,0,0,0,51,72L71.77,51.14l.06-.13.27-.2.61-.61.67-.85a17.4,17.4,0,0,0,1.3-19.73L62.9,41.4h0L42.1,20.61a5,5,0,0,0-.76-.63,5,5,0,0,0-5.54,0,5,5,0,0,0-.76.63l-5.77,5.77L53.6,50.71,45,59.34A9,9,0,0,1,38.57,62q-.45,0-.9,0a9,9,0,0,1-5.49-2.6L14.24,41.4l-9.3,9.3Z"/>
    <path class="cls-1" d="M51,5.13a17.51,17.51,0,0,0-24.76,0L4.44,26.88l-.67.85a17.4,17.4,0,0,0-1.3,19.73L14.24,35.68,35,56.48a5,5,0,0,0,7.06,0l5.77-5.77L23.55,26.38l8.63-8.63a9.13,9.13,0,0,1,1.38-1.13,9,9,0,0,1,5-1.51h0a9,9,0,0,1,5,1.51A9.14,9.14,0,0,1,45,17.75L62.9,35.68,69,29.56l3.18-3.18Z"/>
    <path class="cls-1" d="M134.81,9a4.8,4.8,0,1,0,4.8,4.8A4.87,4.87,0,0,0,134.81,9Z"/>
    <rect class="cls-1" x="131.37" y="29.08" width="6.89" height="38.94"/>
    <path class="cls-1" d="M163.33,48.47V8.91h-6.9V48.47a19.73,19.73,0,0,0,19.41,19.71v-7A12.79,12.79,0,0,1,163.33,48.47Z"/>
    <path class="cls-1" d="M193.55,48.47V8.91h-6.89V48.47a19.73,19.73,0,0,0,19.41,19.71v-7A12.79,12.79,0,0,1,193.55,48.47Z"/>
    <path class="cls-1" d="M224.69,9a4.8,4.8,0,1,0,4.8,4.8A4.87,4.87,0,0,0,224.69,9Z"/>
    <rect class="cls-1" x="221.25" y="29.08" width="6.89" height="38.94"/>
    <path class="cls-1" d="M263.84,28.76a19.65,19.65,0,0,0-19.63,19.63V68h6.9V48.39a12.73,12.73,0,1,1,25.47,0V68h6.89V48.39A19.65,19.65,0,0,0,263.84,28.76Z"/>
    <path class="cls-1" d="M114.94,15.81V9A19.57,19.57,0,0,0,95.69,28.54V68h6.82l-.08-32h11.24v-6.9H102.51v-.5A12.83,12.83,0,0,1,114.94,15.81Z"/>
  </g>
</svg>
